<svg xmlns="http://www.w3.org/2000/svg" viewBox="0 0 1440 320"><path fill="#fcc477" fill-opacity="1" d="M0,96L30,85.3C60,75,120,53,180,80C240,107,300,181,360,181.3C420,181,480,107,540,80C600,53,660,75,720,96C780,117,840,139,900,133.3C960,128,1020,96,1080,112C1140,128,1200,192,1260,186.7C1320,181,1380,107,1410,69.3L1440,32L1440,320L1410,320C1380,320,1320,320,1260,320C1200,320,1140,320,1080,320C1020,320,960,320,900,320C840,320,780,320,720,320C660,320,600,320,540,320C480,320,420,320,360,320C300,320,240,320,180,320C120,320,60,320,30,320L0,320Z"></path></svg>